
<svg xmlns="http://www.w3.org/2000/svg" xmlns:xlink="http://www.w3.org/1999/xlink" width="226.993" height="96.502" viewBox="0 0 226.993 96.502">
  <defs>
    <filter id="Path_2255" x="19.027" y="22.791" width="57.062" height="57.692" filterUnits="userSpaceOnUse">
      <feOffset dy="3" input="SourceAlpha"/>
      <feGaussianBlur stdDeviation="3" result="blur"/>
      <feFlood flood-opacity="0.161"/>
      <feComposite operator="in" in2="blur"/>
      <feComposite in="SourceGraphic"/>
    </filter>
    <filter id="Path_2103" x="0" y="0" width="96.487" height="96.502" filterUnits="userSpaceOnUse">
      <feOffset dy="3" input="SourceAlpha"/>
      <feGaussianBlur stdDeviation="3" result="blur-2"/>
      <feFlood flood-opacity="0.161"/>
      <feComposite operator="in" in2="blur-2"/>
      <feComposite in="SourceGraphic"/>
    </filter>
  </defs>
  <g id="Group_1324" data-name="Group 1324" transform="translate(-316.277 -213.935)">
    <g id="Group_1323" data-name="Group 1323">
      <g id="Group_1" data-name="Group 1" transform="translate(327.277 221.934)">
        <g id="Group_1283" data-name="Group 1283" transform="translate(0 0)">
          <g id="Group_1281" data-name="Group 1281" transform="translate(0)">
            <text id="YME" transform="translate(74.36 62)" fill="#004fac" font-size="61" font-family="Nunito-Bold, Nunito" font-weight="700" letter-spacing="0.001em"><tspan x="0" y="0">YME</tspan></text>
            <g id="t-junction" transform="translate(0 0)">
              <g id="Group_1265" data-name="Group 1265" transform="translate(0 0)">
                <g transform="matrix(1, 0, 0, 1, -11, -8)" filter="url(#Path_2255)">
                  <path id="Path_2255-2" data-name="Path 2255" d="M0,0H39.062V39.692H0Z" transform="translate(28.03 28.79)" fill="#fff"/>
                </g>
                <g transform="matrix(1, 0, 0, 1, -11, -8)" filter="url(#Path_2103)">
                  <path id="Path_2103-2" data-name="Path 2103" d="M71.363,29.523,45.023,3.183a10.97,10.97,0,0,0-15.455,0L3.228,29.523a10.988,10.988,0,0,0,0,15.455l26.34,26.34a10.969,10.969,0,0,0,15.455,0l26.34-26.34A10.988,10.988,0,0,0,71.363,29.523Zm-14.422-1A2.183,2.183,0,0,1,54.758,30.7h-13.1V59.08a2.183,2.183,0,0,1-2.183,2.183H35.112a2.183,2.183,0,0,1-2.183-2.183V30.7h-13.1a2.183,2.183,0,0,1-2.183-2.183V24.154a2.183,2.183,0,0,1,2.183-2.183H54.758a2.183,2.183,0,0,1,2.183,2.183v4.366Z" transform="translate(10.95 8)" fill="#f13200" stroke="#fff" stroke-width="4"/>
                </g>
              </g>
            </g>
          </g>
        </g>
        <text id="TM" transform="translate(201.993 15.075)" fill="#004fac" font-size="9" font-family="Nunito-Bold, Nunito" font-weight="700" letter-spacing="0.1em"><tspan x="0" y="0">TM</tspan></text>
      </g>
    </g>
  </g>
</svg>
